<?xml version="1.0" encoding="UTF-8" standalone="no"?>
<svg
   xmlns:dc="http://purl.org/dc/elements/1.1/"
   xmlns:cc="http://creativecommons.org/ns#"
   xmlns:rdf="http://www.w3.org/1999/02/22-rdf-syntax-ns#"
   xmlns:svg="http://www.w3.org/2000/svg"
   xmlns="http://www.w3.org/2000/svg"
   xmlns:sodipodi="http://sodipodi.sourceforge.net/DTD/sodipodi-0.dtd"
   xmlns:inkscape="http://www.inkscape.org/namespaces/inkscape"
   version="1.0"
   width="58.000000pt"
   height="58.000000pt"
   viewBox="0 0 58.000000 58.000000"
   preserveAspectRatio="xMidYMid meet"
   id="svg2"
   inkscape:version="0.91 r13725"
   sodipodi:docname="icon.svg">
  <defs
     id="defs12" />
  <sodipodi:namedview
     pagecolor="#ffffff"
     bordercolor="#666666"
     borderopacity="1"
     objecttolerance="10"
     gridtolerance="10"
     guidetolerance="10"
     inkscape:pageopacity="0"
     inkscape:pageshadow="2"
     inkscape:window-width="1327"
     inkscape:window-height="856"
     id="namedview10"
     showgrid="false"
     inkscape:zoom="3.2551724"
     inkscape:cx="-11.212924"
     inkscape:cy="36.25"
     inkscape:window-x="0"
     inkscape:window-y="24"
     inkscape:window-maximized="0"
     inkscape:current-layer="g6" />
  <metadata
     id="metadata4">
Created by potrace 1.10, written by Peter Selinger 2001-2011
<rdf:RDF>
  <cc:Work
     rdf:about="">
    <dc:format>image/svg+xml</dc:format>
    <dc:type
       rdf:resource="http://purl.org/dc/dcmitype/StillImage" />
  </cc:Work>
</rdf:RDF>
</metadata>
  <g
     transform="translate(0.000000,58.000000) scale(0.050000,-0.050000)"
     fill="#59be7b"
     stroke="none"
     id="g6">
    <path
       d="M526 1119 c-395 -52 -613 -351 -466 -638 56 -112 80 -118 80 -21 0 80 58 224 101 251 52 32 64 -29 22 -116 -29 -58 -43 -126 -43 -201 l0 -114 135 -99 c74 -55 160 -105 190 -112 30 -7 60 -20 66 -31 18 -28 96 -21 171 15 207 100 285 315 189 520 -48 104 -47 127 2 127 41 0 88 -88 105 -194 l15 -96 26 90 c27 96 35 373 11 396 -8 8 -124 -101 -259 -241 -135 -140 -258 -254 -273 -254 -39 2 -384 414 -367 440 23 39 60 11 216 -165 l155 -175 243 238 c223 217 241 240 214 272 -75 91 -307 138 -533 108z m254 -254 c138 -69 82 -112 -90 -68 -54 14 -106 14 -160 1 -128 -32 -140 -31 -140 12 0 83 261 119 390 55z m23 -512 c-13 -15 -16 -33 -9 -41 16 -15 -89 -119 -125 -124 -14 -2 -20 12 -15 32 8 28 0 33 -42 25 -32 -6 -52 -1 -52 14 0 13 10 17 21 10 12 -7 37 1 56 18 28 26 153 89 180 92 5 1 -2 -11 -14 -26z"
       id="path8" />
    <path
       style="fill:#59be7b;fill-opacity:1"
       d="m 41.081124,60.288665 c -0.02938,-0.126721 -0.06394,-0.92161 -0.0768,-1.766419 l -0.02339,-1.536017 -2.548206,0.102981 c -2.615198,0.105688 -3.563442,-0.197741 -3.241315,-1.037189 0.119358,-0.311043 0.514296,-0.382937 1.440955,-0.262312 1.164896,0.151637 1.50489,0.01365 3.887761,-1.577834 3.58828,-2.396561 10.444915,-5.784304 10.444915,-5.160648 0,0.108308 -0.355834,0.663446 -0.790743,1.233641 -0.520401,0.68228 -0.77233,1.374877 -0.736884,2.025819 0.08506,1.562018 0.06538,1.610229 -1.382979,3.38824 -2.333534,2.864658 -6.706065,5.742598 -6.973312,4.589738 z"
       id="path4142"
       inkscape:connector-curvature="0"
       transform="matrix(16,0,0,-16,0,1160)" />
    <path
       style="fill:#59be7b;fill-opacity:1"
       d="M 38.251931,70.032622 C 37.668512,69.520373 36.246728,68.779776 35.092408,68.386848 30.94915,66.976489 27.213751,64.716624 18.594446,58.405803 l -4.875893,-3.569998 0.173664,-5.836864 c 0.19243,-6.467581 0.710844,-9.317197 2.354504,-12.942212 1.890629,-4.169693 2.369507,-7.226435 1.285763,-8.207209 -0.725717,-0.656766 -1.216067,-0.639635 -2.40272,0.08394 -2.893573,1.764391 -6.0655409,9.623846 -6.534231,16.190423 -0.2807399,3.933303 -0.6062935,4.402283 -1.9706768,2.838882 -1.1659309,-1.336 -3.5922664,-6.119584 -4.465193,-8.803245 C -2.182047,24.811683 6.1696099,11.204996 22.370563,5.2315146 c 14.03009,-5.17305834 35.484861,-3.5267768 42.76329,3.2813408 0.901175,0.8429446 1.498562,1.6671536 1.498562,2.0675556 0,1.546311 -2.430105,4.242837 -15.304817,16.982739 -7.380285,7.303006 -13.50683,13.281952 -13.614545,13.286545 -0.107718,0.0046 -3.329599,-3.518646 -7.159741,-7.829426 C 22.354271,23.792343 18.83251,20.200601 17.133578,19.333871 c -1.149507,-0.586435 -1.293669,-0.597019 -1.982691,-0.145554 -0.949678,0.622253 -0.935375,1.163285 0.07676,2.903337 3.232822,5.557846 18.078268,23.014974 21.226356,24.9606 l 1.011357,0.625055 1.757787,-1.318256 c 0.966785,-0.72504 7.633052,-7.141195 14.813931,-14.258118 7.18088,-7.116925 13.805871,-13.527708 14.722204,-14.246186 1.533433,-1.202335 1.692386,-1.261913 1.996822,-0.748439 0.571426,0.963801 0.38416,16.858051 -0.241662,20.511015 -0.454603,2.653537 -1.83253,8.052105 -2.131534,8.35111 -0.05653,0.05653 -0.343896,-1.510142 -0.638583,-3.481506 -1.455807,-9.7389 -5.394649,-15.770503 -8.759558,-13.41363 -0.62232,0.435891 -0.694654,0.678676 -0.539489,1.810745 0.09856,0.719048 0.884005,2.946312 1.745437,4.949477 2.077669,4.83137 2.750402,7.717346 2.753108,11.810665 0.0037,5.572264 -1.771934,10.483522 -5.299185,14.657214 -4.244623,5.022539 -11.164087,8.662583 -16.466955,8.662583 -1.638488,0 -1.993815,-0.113112 -2.92575,-0.931361 z m 5.367448,-10.079186 c 3.091922,-1.96084 6.137196,-5.340636 6.089143,-6.758036 -0.02559,-0.755182 -0.05032,-0.738621 -0.325571,0.218176 -0.579564,2.014606 -6.979409,7.546319 -8.000507,6.915247 -0.136349,-0.08427 -0.24791,-0.900201 -0.24791,-1.813179 l 0,-1.659961 -2.816782,-0.08833 c -1.914513,-0.06004 -2.857541,-0.211335 -2.944031,-0.472335 -0.08889,-0.268231 0.279539,-0.384004 1.222036,-0.384004 1.01219,0 1.805269,-0.279051 3.174434,-1.116955 4.441513,-2.71812 10.006377,-5.64152 10.738968,-5.64152 0.109333,0 -0.08897,0.465604 -0.440671,1.034671 -0.351705,0.569069 -0.628548,1.225717 -0.615209,1.459216 0.01868,0.326846 0.06502,0.318499 0.201397,-0.03626 0.09743,-0.253442 0.520516,-0.913853 0.940196,-1.467578 0.419679,-0.553725 0.675546,-1.09428 0.568593,-1.201233 -0.566744,-0.566741 -7.168932,2.551785 -11.098159,5.24219 -1.887675,1.292521 -2.288462,1.44741 -3.525518,1.362484 -1.269874,-0.08718 -1.405068,-0.02971 -1.499398,0.637447 -0.155903,1.102614 0.465038,1.308124 3.297158,1.091254 l 2.579077,-0.197495 -0.177041,1.319933 c -0.201436,1.501816 0.165042,2.4291 0.96002,2.4291 0.298899,0 1.162798,-0.392775 1.919775,-0.872835 z M 31.457627,23.13689 c 5.410045,-1.222326 6.954034,-1.238967 12.503243,-0.13476 5.362054,1.066966 7.131312,1.171573 8.703658,0.514605 1.454651,-0.607792 1.371531,-1.383562 -0.3065,-2.860624 -4.868282,-4.285234 -14.954688,-5.64082 -23.020055,-3.093834 -3.662353,1.156545 -5.521008,3.142826 -4.975334,5.316966 0.388375,1.54741 1.248262,1.578636 7.094988,0.257647 z"
       id="path4144"
       inkscape:connector-curvature="0"
       transform="matrix(16,0,0,-16,0,1160)" />
    <path
       style="fill:#59be7b;fill-opacity:1"
       d="m 38.273131,70.094361 c -0.644482,-0.515835 -1.819535,-1.17129 -2.611229,-1.456562 -4.768241,-1.718152 -7.974373,-3.611781 -15.996144,-9.447764 l -5.955004,-4.332375 0.165795,-5.69419 c 0.194523,-6.680851 0.600137,-8.849891 2.53109,-13.535102 1.965148,-4.768183 2.18982,-7.217539 0.733531,-7.996921 -3.021485,-1.61705 -7.861699,7.830856 -8.5474959,16.684375 -0.2893198,3.735061 -0.6262844,4.185332 -1.975276,2.639473 C 5.4533167,45.620186 2.6869843,40.15046 2.0040554,37.831594 -2.0950147,23.913328 6.9218404,10.276139 23.901204,4.7141124 35.423979,0.93953125 51.792532,1.430663 61.021901,5.8279039 c 2.829688,1.3481756 5.610514,3.7037359 5.610514,4.7525071 0,1.553769 -2.410655,4.229786 -15.301693,16.986074 -7.382002,7.304838 -13.514768,13.283784 -13.628369,13.286546 -0.113601,0.0028 -2.874232,-3.001733 -6.134738,-6.676654 C 23.826825,25.451726 18.629274,20.14513 17.068217,19.37278 c -1.081977,-0.53532 -1.34205,-0.564087 -1.881168,-0.208078 -1.027981,0.678832 -0.884488,1.485462 0.692405,3.892269 4.181478,6.382179 17.182862,21.607336 20.285054,23.754629 1.108774,0.76748 1.349708,0.829901 1.818457,0.471127 2.36017,-1.806438 6.161855,-5.414296 16.82212,-15.964453 12.903989,-12.770707 15.367453,-14.998846 15.94427,-14.421173 0.483824,0.484545 0.436979,16.279071 -0.05842,19.694749 -0.377661,2.603926 -0.838961,4.618142 -1.821329,7.952642 l -0.497777,1.689618 -0.671455,-3.840042 c -0.84241,-4.81772 -1.459425,-6.945509 -2.766962,-9.541934 -1.690445,-3.356775 -3.402702,-4.680874 -5.254745,-4.063526 -1.857487,0.619161 -1.755723,1.623434 0.779329,7.691011 2.099563,5.025249 2.594495,7.511221 2.420882,12.159746 -0.167484,4.484439 -1.026151,7.382067 -3.246141,10.954323 -3.818532,6.144523 -11.267259,10.928795 -17.576596,11.289341 -2.549865,0.145709 -2.638766,0.127176 -3.783013,-0.788668 z m 5.011827,-9.925689 c 2.833803,-1.727098 6.466201,-5.625073 6.439247,-6.910043 -0.0083,-0.393343 -0.138199,-0.283733 -0.414061,0.34926 -0.897031,2.058318 -5.441568,6.15795 -7.484402,6.751688 -0.662598,0.19258 -0.691208,0.124224 -0.691208,-1.651501 l 0,-1.852393 -2.816782,-0.08833 c -1.914513,-0.06004 -2.857541,-0.211335 -2.944031,-0.472335 -0.08856,-0.267251 0.27291,-0.384004 1.188883,-0.384004 1.085343,0 1.954686,-0.383135 4.957587,-2.184892 2.002797,-1.201691 3.582062,-2.244281 3.509479,-2.316863 -0.152299,-0.1523 -2.994188,1.479384 -5.420819,3.112385 -1.220184,0.821124 -1.957137,1.107486 -2.757768,1.071602 -1.712812,-0.07676 -1.860617,-0.02799 -1.860617,0.614164 0,0.984912 1.00611,1.285422 3.536037,1.056168 l 2.300828,-0.208496 0,1.68079 c 0,0.924436 0.09216,1.772954 0.204803,1.885593 0.371095,0.371099 1.161723,0.212188 2.252824,-0.452796 z M 50.93968,48.88902 c -0.372951,-0.125382 -3.149947,0.877054 -2.958904,1.0681 0.06881,0.0688 0.625731,-0.08408 1.237612,-0.339739 1.539584,-0.643281 1.585523,-0.609556 0.85539,0.627933 -0.961203,1.629115 -0.776217,1.720502 0.275368,0.136042 0.515386,-0.776549 0.774198,-1.430591 0.590534,-1.492336 z M 31.229753,23.177707 c 5.067326,-1.20415 7.494125,-1.271845 12.055205,-0.336274 2.112023,0.43322 4.671291,0.876693 5.687262,0.985496 2.096467,0.224515 4.29263,-0.239504 4.571362,-0.965866 0.606957,-1.581704 -3.357356,-4.305411 -8.323495,-5.718709 -3.148739,-0.896091 -10.421494,-0.97638 -13.76246,-0.151933 -5.461928,1.347833 -8.225974,3.901996 -6.901268,6.377232 0.450821,0.842368 2.584796,0.781628 6.673394,-0.189946 z"
       id="path4146"
       inkscape:connector-curvature="0"
       transform="matrix(16,0,0,-16,0,1160)" />
    <path
       style="fill:#59be7b;fill-opacity:1"
       d="M 38.273131,70.094361 C 37.628649,69.578526 36.453596,68.924835 35.661902,68.641719 30.895138,66.937075 27.600855,64.985397 19.22773,58.905387 l -5.51717,-4.006203 0.181167,-5.868552 c 0.207994,-6.73752 0.543966,-8.553925 2.494258,-13.484997 1.973887,-4.990732 2.186717,-7.148055 0.779487,-7.901182 -1.888746,-1.010826 -4.924935,2.786033 -6.921917,8.656097 C 9.3296886,38.986832 8.9265607,41.003444 8.6066375,44.489087 8.276969,48.080909 7.9465198,48.477368 6.5841069,46.915626 5.2371493,45.3716 2.6110492,40.01824 1.8595948,37.284609 -1.3312667,25.676934 4.6467576,14.062059 17.157531,7.5618084 23.62145,4.2033359 30.45128,2.5496929 39.137985,2.2398865 c 8.564717,-0.3054557 16.488291,0.9904284 21.882771,3.5788809 2.830704,1.3582663 5.611659,3.7179824 5.611659,4.7616436 0,1.556658 -2.40315,4.224959 -15.300403,16.988557 C 43.9493,34.875173 37.81827,40.854119 37.707499,40.855513 37.596731,40.857049 34.694764,37.713056 31.258688,33.869174 20.506792,21.841207 17.621276,19.04661 15.953885,19.04661 c -1.083407,0 -1.664182,0.672371 -1.380372,1.598076 0.940248,3.066816 16.132393,21.606557 20.983903,25.607715 1.364171,1.125065 1.743296,1.300208 2.239574,1.034606 1.390169,-0.743995 5.73691,-4.832251 17.488883,-16.448887 12.78203,-12.634831 14.880791,-14.524743 15.47198,-13.932353 0.485012,0.485999 0.422678,16.648545 -0.07698,19.95864 -0.39248,2.600092 -1.742787,8.063548 -2.193113,8.873533 -0.140933,0.253489 -0.38308,-0.615657 -0.599117,-2.150424 -0.88344,-6.276082 -2.863222,-11.645051 -5.08198,-13.781805 -0.895507,-0.86241 -1.349839,-1.06823 -2.358047,-1.06823 -1.57544,0 -2.230386,0.753282 -1.953927,2.2473 0.105076,0.567847 1.004438,3.056196 1.998585,5.52966 2.15976,5.373543 2.574214,7.510404 2.382596,12.284258 -0.177582,4.424172 -1.166338,7.638462 -3.406993,11.07561 -3.965932,6.083709 -11.199339,10.657276 -17.412737,11.009792 -2.549198,0.144625 -2.639064,0.125867 -3.783013,-0.78974 z m 5.533728,-10.338125 c 1.853294,-1.248082 4.518547,-3.839401 5.34804,-5.199688 0.927941,-1.521732 0.669086,-1.667881 -0.292049,-0.164891 -1.044065,1.632666 -3.451464,3.923294 -5.466027,5.200892 -2.085982,1.322891 -2.262289,1.252348 -2.262289,-0.905172 l 0,-1.831694 -2.816782,-0.08833 c -1.834794,-0.05754 -2.858982,-0.215712 -2.937829,-0.453724 -0.07746,-0.233807 0.356117,-0.408083 1.203964,-0.483935 l 1.325011,-0.118544 -1.459216,-0.05367 c -1.27803,-0.04701 -1.459216,0.02356 -1.459216,0.568339 0,0.909601 1.242647,1.252766 3.707045,1.023724 l 2.12982,-0.197946 0,1.682531 c 0,2.520082 0.500308,2.691707 2.979528,1.022103 z m -1.660038,-6.442943 c 0.810203,-0.470888 1.401846,-0.927407 1.314769,-1.014487 -0.164943,-0.164941 -4.170276,2.340303 -4.170276,2.608415 0,0.08407 0.311043,-0.04754 0.691207,-0.292461 0.380164,-0.244921 1.354101,-0.83058 2.1643,-1.301467 z m 2.82558,-1.699606 c 0.107626,-0.174141 -0.0157,-0.225641 -0.289072,-0.120734 -0.532205,0.204226 -0.62958,0.42442 -0.187689,0.42442 0.15899,0 0.373535,-0.13666 0.476761,-0.303686 z m 5.985809,-2.384344 c 0.0037,-0.211202 -0.139568,-0.384004 -0.318502,-0.384004 -0.178934,0 -0.242307,0.134337 -0.140834,0.298525 0.101475,0.164191 -0.04501,0.682597 -0.325529,1.152013 l -0.510028,0.853487 0.644031,-0.768008 c 0.354217,-0.422405 0.647105,-0.94081 0.650862,-1.152013 z m -2.143591,0.537606 c 0.253442,-0.163788 0.322563,-0.297794 0.153601,-0.297794 -0.168962,0 -0.514565,0.134006 -0.768008,0.297794 -0.253443,0.163789 -0.322564,0.297794 -0.153602,0.297794 0.168962,0 0.514566,-0.134005 0.768009,-0.297794 z M 31.091914,23.172395 c 5.359636,-1.230827 7.333332,-1.276364 12.355514,-0.285065 2.360588,0.465941 5.360401,0.862872 6.666252,0.882068 2.056595,0.03023 2.463833,-0.05466 3.043603,-0.634427 0.634645,-0.634643 0.643188,-0.709223 0.164866,-1.439233 -1.092879,-1.667943 -5.063768,-3.801226 -8.771013,-4.712057 -2.825779,-0.694263 -10.182336,-0.686384 -13.037481,0.01396 -4.436682,1.08829 -7.275308,3.078147 -7.275308,5.099942 0,2.069542 1.498608,2.30456 6.853567,1.074809 z"
       id="path4148"
       inkscape:connector-curvature="0"
       transform="matrix(16,0,0,-16,0,1160)" />
    <path
       style="fill:#59be7b;fill-opacity:1"
       d="M 38.158701,70.042035 C 37.469189,69.534965 35.984174,68.773472 34.85866,68.349833 30.323149,66.64267 26.992504,64.624586 18.789352,58.613221 l -5.078601,-3.721659 0.17593,-5.864743 c 0.202435,-6.748293 0.522959,-8.484238 2.480279,-13.433082 2.168435,-5.48262 2.189335,-8.022233 0.06602,-8.022233 -3.016731,0 -6.9883301,8.545732 -7.7963592,16.775508 C 8.2671821,48.109756 7.9554419,48.487717 6.550301,46.876519 5.170911,45.294848 2.6036295,40.045867 1.8451529,37.256524 -0.80990404,27.492401 2.9789078,17.54935 11.922607,10.81007 16.760363,7.1647117 23.477968,4.3530193 30.536017,3.0193197 35.49388,2.0824745 46.628682,2.0105044 51.425847,2.8842976 c 3.890618,0.7086677 7.402081,1.8092912 10.098366,3.1652047 2.497889,1.2561439 5.108202,3.5714578 5.108202,4.5309087 0,1.558239 -2.398985,4.22262 -15.298621,16.991093 -7.382669,7.307601 -13.519112,13.286547 -13.63654,13.286547 -0.117429,0 -3.090039,-3.209842 -6.605804,-7.13298 C 20.164262,21.531739 17.566614,19.04661 15.748394,19.04661 c -1.273646,0 -1.479561,1.043868 -0.54473,2.761462 2.42443,4.454475 16.110588,20.884972 20.236818,24.29469 0.803058,0.663609 1.704868,1.20656 2.004029,1.20656 0.873963,0 4.893329,-3.71631 18.028535,-16.669199 12.69401,-12.517816 14.699492,-14.32001 15.284807,-13.735448 0.48865,0.48802 0.610892,11.96688 0.18148,17.0413 -0.329436,3.892988 -1.669423,10.397132 -2.417374,11.733645 -0.164833,0.294541 -0.444951,-0.704598 -0.794192,-2.832774 -1.27725,-7.783186 -3.485787,-12.716808 -6.200436,-13.851061 -1.135415,-0.474407 -2.705203,-0.101421 -3.019422,0.717425 -0.248623,0.647903 0.486158,3.094733 2.147305,7.150546 1.831651,4.472113 2.280798,6.559839 2.28622,10.626828 0.0078,5.858673 -1.588235,10.392144 -5.191104,14.745032 -4.152607,5.017067 -11.154039,8.728367 -16.466219,8.728367 -1.596594,0 -2.056057,-0.135535 -3.12541,-0.921948 z M 44.023327,59.6142 c 1.54445,-1.067089 4.865005,-4.500465 5.364143,-5.546403 l 0.366506,-0.768009 -0.522879,0.768009 c -1.106417,1.625115 -5.008631,5.16066 -6.591942,5.972537 -1.071188,0.549274 -1.342452,0.778257 -0.766252,0.64682 0.490583,-0.111905 1.458273,-0.594733 2.150424,-1.072954 z m -2.888793,-1.080425 0,-1.678092 -2.816782,-0.08833 c -1.81865,-0.05703 -2.859255,-0.216551 -2.936646,-0.450173 -0.06736,-0.203341 0.258174,-0.418669 0.743159,-0.491575 l 0.863023,-0.129738 -0.854449,-0.04603 c -0.524694,-0.02826 -0.925755,0.13978 -1.039205,0.435427 -0.354623,0.924132 0.442496,1.210605 3.137527,1.127587 l 2.59617,-0.07997 0,1.539491 c 0,0.84672 0.06912,1.539491 0.153601,1.539491 0.08448,0 0.153602,-0.755139 0.153602,-1.678089 z m 1.530527,-5.598447 c 0.58835,-0.390913 0.965126,-0.710752 0.83728,-0.710752 -0.307544,0 -4.211027,2.469277 -4.211027,2.663822 0,0.157353 1.533878,-0.730615 3.373747,-1.95307 z m 8.299981,-3.782786 c 0,-0.168961 -0.1464,-0.307203 -0.325334,-0.307203 -0.178934,0 -0.239895,0.138242 -0.135471,0.307203 0.104425,0.168962 0.250826,0.307204 0.325335,0.307204 0.07451,0 0.13547,-0.138242 0.13547,-0.307204 z M 31.788623,23.00711 c 5.036732,-1.048989 7.809876,-1.085274 11.803538,-0.154441 4.837873,1.1276 8.680222,1.162326 9.754393,0.08816 0.432702,-0.432703 0.427952,-0.554705 -0.04998,-1.284123 -0.290461,-0.443297 -1.356583,-1.341463 -2.369162,-1.995924 -3.905044,-2.523952 -9.764097,-3.653916 -15.930794,-3.072377 -6.581035,0.620612 -10.590706,2.726809 -10.590706,5.563079 0,2.147224 0.758834,2.23517 7.38271,0.855628 z"
       id="path4150"
       inkscape:connector-curvature="0"
       transform="matrix(16,0,0,-16,0,1160)" />
    <path
       style="fill:#59be7b;fill-opacity:1"
       d="M 38.16812,70.087185 C 37.46588,69.611093 35.741465,68.762711 34.336083,68.201887 29.998148,66.470814 25.52439,63.655049 16.593646,57.034871 l -2.88305,-2.137146 0.176008,-5.867824 c 0.199863,-6.663137 0.494878,-8.288637 2.458836,-13.547909 0.757141,-2.027543 1.46773,-4.24561 1.579086,-4.929038 0.703221,-4.315896 -2.918252,-3.726686 -5.502067,0.895181 C 10.915857,34.143107 9.2946349,39.302628 8.8865029,42.701271 8.2135272,48.305349 8.1136261,48.530655 6.8605447,47.270393 5.7466483,46.150118 3.4723156,41.961209 2.4620076,39.169087 -2.6390135,25.071729 5.8048222,11.032719 23.026942,4.9771232 29.00275,2.8759258 35.73117,1.9778141 43.55725,2.2367314 c 5.99532,0.1983486 9.735936,0.7945315 14.152965,2.2557123 3.603527,1.1920684 5.694546,2.3462186 7.616586,4.2040146 1.577068,1.5243547 1.635904,2.2138447 0.35419,4.1507337 -0.907248,1.371007 -27.503926,28.010859 -27.965462,28.010859 -0.121809,0 -3.234289,-3.352357 -6.916626,-7.449682 C 19.80228,21.172454 17.184292,18.745777 15.449964,19.181066 c -1.203714,0.302113 -0.955288,1.637729 0.784449,4.217456 5.483435,8.130975 19.437682,23.9108 21.144544,23.9108 0.871751,0 5.518666,-4.29145 18.550572,-17.131556 12.240943,-12.060785 14.245525,-13.855125 14.828324,-13.273108 0.476039,0.475401 0.60903,12.10112 0.195264,17.069315 -0.312327,3.750192 -1.665411,10.337333 -2.389025,11.630358 -0.186562,0.333368 -0.492122,-0.728809 -0.98424,-3.421352 -1.132275,-6.195097 -2.559407,-9.933392 -4.618517,-12.097968 -0.95735,-1.006382 -1.349164,-1.207107 -2.348619,-1.203188 -0.659769,0.0026 -1.395244,0.128556 -1.634387,0.279929 -0.775433,0.49084 -0.395607,2.400481 1.351824,6.796491 2.408797,6.059811 2.709294,7.555308 2.527725,12.579893 -0.206991,5.728136 -1.307817,8.823538 -4.716395,13.261985 -3.919461,5.103693 -11.319727,9.172885 -16.655306,9.158271 -1.726498,-0.0047 -2.238145,-0.139068 -3.318057,-0.871207 z m 4.811831,-9.876442 c 1.327223,-0.677098 4.870095,-3.86672 5.897297,-5.309289 0.358657,-0.50369 -0.441841,0.189382 -1.778886,1.540158 -1.337044,1.350777 -3.191318,2.888616 -4.120608,3.417423 -1.879412,1.06947 -1.877903,1.310865 0.0022,0.351708 l 4.6e-5,0 z m -1.845417,-1.676968 0,-1.678092 -2.816782,-0.08833 c -1.811627,-0.05681 -2.859372,-0.216907 -2.936136,-0.448649 -0.06565,-0.198174 0.167214,-0.423929 0.517462,-0.501679 0.561405,-0.12462 0.554407,-0.136521 -0.05909,-0.100486 -0.477489,0.02805 -0.695917,0.233717 -0.695917,0.65528 0,0.563758 0.234245,0.621688 2.841631,0.702737 l 2.841632,0.08833 0,1.524491 c 0,0.838468 0.06912,1.524487 0.153601,1.524487 0.08448,0 0.153602,-0.755139 0.153602,-1.678089 z m 1.689619,-5.779052 c 0.4821,-0.460024 -1.464061,0.59204 -2.150424,1.162486 -0.337924,0.280851 -0.06144,0.200143 0.614407,-0.179355 0.675847,-0.379498 1.367055,-0.821907 1.536017,-0.983131 z M 31.561348,23.040254 c 5.609457,-1.120169 7.109449,-1.138843 12.338016,-0.153601 4.269267,0.804476 7.922711,0.988597 8.929094,0.449996 1.593182,-0.852644 -0.02537,-2.800292 -3.860238,-4.64509 -3.324761,-1.599413 -5.89228,-2.091908 -10.90572,-2.091908 -4.627764,0 -7.424259,0.467496 -10.086055,1.686107 -2.131017,0.975612 -3.001286,1.763152 -3.449658,3.121731 -0.281539,0.853075 -0.254056,1.178679 0.151769,1.798046 0.644284,0.983303 1.197579,0.970016 6.882792,-0.165281 z"
       id="path4152"
       inkscape:connector-curvature="0"
       transform="matrix(16,0,0,-16,0,1160)" />
    <path
       style="fill:#59be7b;fill-opacity:1"
       d="M 38.081691,70.056971 C 37.331921,69.55956 35.603902,68.714001 34.241649,68.177949 30.109043,66.551756 25.454067,63.600542 15.977117,56.598394 l -2.270763,-1.677776 0.1811,-6.032873 c 0.202046,-6.730623 0.418025,-7.90591 2.463538,-13.405753 1.709069,-4.595236 1.97698,-6.048856 1.304111,-7.075784 -1.732419,-2.644005 -5.599567,2.001864 -7.70023,9.250814 C 9.5299284,39.123415 8.9863894,41.911921 8.7470086,43.853699 8.5076277,45.795476 8.1510687,47.540158 7.9546551,47.730768 7.1478472,48.513734 4.0237383,43.575495 2.3384981,38.853377 -2.0165386,26.650372 4.323254,13.73608 17.933018,7.0870086 25.410674,3.4337879 33.583167,1.8987544 43.725705,2.242386 c 6.090255,0.2063392 9.515966,0.7558905 13.98451,2.243389 3.60815,1.2010887 5.698475,2.356685 7.616586,4.2106833 1.577111,1.5243967 1.635919,2.2139117 0.354015,4.1507337 -0.914397,1.381557 -27.484022,28.010859 -27.948087,28.010859 -0.124561,0 -3.381393,-3.490599 -7.237401,-7.756886 C 19.524356,20.962886 17.146578,18.755243 15.491289,19.170694 c -1.696948,0.425907 -0.681433,2.609136 4.086199,8.784814 6.726571,8.713161 16.452656,19.353814 17.690344,19.353814 1.039604,0 4.814348,-3.507842 21.8381,-20.293979 8.990396,-8.864913 11.081988,-10.679844 11.651921,-10.110698 0.477603,0.476942 0.61025,12.537722 0.190149,17.28904 -0.320041,3.619655 -1.702972,10.193875 -2.410176,11.45758 -0.227248,0.406071 -0.381565,-0.0035 -0.658371,-1.747406 -0.678849,-4.276781 -1.848734,-8.4196 -3.086776,-10.930933 -1.474733,-2.991457 -2.63152,-4.095807 -4.290286,-4.095807 -2.394101,0 -2.40164,1.216089 -0.04525,7.300544 2.290008,5.913048 2.579802,7.405085 2.400733,12.360473 -0.162904,4.508068 -0.667734,6.562902 -2.428554,9.885031 -3.583948,6.76182 -12.310942,12.543728 -18.926644,12.539501 -1.762942,-0.0012 -2.253079,-0.13089 -3.420989,-0.905697 z m 5.817673,-10.444522 c 0.253443,-0.172034 0.322564,-0.31183 0.153602,-0.310659 -0.168962,0.0012 -0.652807,0.284814 -1.075212,0.63032 -0.750783,0.614105 -0.143955,0.403625 0.92161,-0.319661 z m -2.76483,-2.472618 c 0,-0.18153 -1.105932,-0.307204 -2.70339,-0.307204 -1.72824,0 -2.858724,-0.138515 -3.134018,-0.384004 -0.365059,-0.325534 -0.370147,-0.303904 -0.03341,0.142051 0.308985,0.409207 0.988055,0.548705 3.057218,0.628034 1.463001,0.05609 2.694561,0.130411 2.736801,0.165153 0.04224,0.03474 0.0768,-0.07507 0.0768,-0.24403 z m 6.624199,-0.998412 0.902284,-0.998411 -0.998411,0.902284 c -0.93066,0.841056 -1.139617,1.094539 -0.902284,1.094539 0.05287,0 0.502155,-0.449285 0.998411,-0.998412 z M 31.457627,23.040254 c 5.840941,-1.117941 7.0976,-1.133154 12.579484,-0.152295 6.239387,1.116397 9.385558,0.976259 9.385558,-0.418056 0,-1.603189 -5.046485,-4.539632 -9.27995,-5.399805 -3.013008,-0.612196 -8.9652,-0.623384 -12.120461,-0.02278 -2.799625,0.532906 -6.115447,2.09775 -6.978008,3.293148 -1.138679,1.578063 -0.53535,3.621401 1.069277,3.621401 0.290914,0 2.695759,-0.414724 5.3441,-0.92161 z"
       id="path4154"
       inkscape:connector-curvature="0"
       transform="matrix(16,0,0,-16,0,1160)" />
    <path
       style="fill:#59be7b;fill-opacity:1"
       d="M 38.240371,70.152932 C 37.583911,69.706858 35.858362,68.86297 34.405818,68.277628 30.170712,66.570981 25.484055,63.643385 17.338867,57.616475 l -3.545435,-2.623391 0,-4.387546 c 0,-6.228724 0.403908,-8.92566 2.034943,-13.58753 2.024813,-5.78738 2.37899,-7.359561 1.88923,-8.386239 -1.082788,-2.269831 -3.722388,-0.335022 -5.938412,4.352816 C 10.217513,36.28821 9.3507744,39.452021 8.7493651,44.044223 8.5088021,45.8811 8.1638011,47.532174 7.9826964,47.713279 7.0856066,48.610368 3.9088953,43.431322 2.0819664,38.09322 1.1675754,35.42146 1.082324,34.850219 1.0733444,31.334746 1.0655009,28.264044 1.2006214,27.015159 1.7477774,25.101132 5.2110739,12.986046 17.564951,4.3803983 34.234906,2.4707653 40.59882,1.7417443 48.999921,2.191105 54.567561,3.5583248 c 5.323629,1.3072995 8.138687,2.6560738 10.75924,5.1550604 1.593599,1.5196718 1.664812,2.3547888 0.359846,4.2198658 -0.99815,1.42657 -27.523738,27.9248 -27.953632,27.9248 -0.137799,0 -2.897831,-2.937633 -6.133402,-6.528072 -7.56361,-8.393165 -13.295667,-14.192259 -14.675314,-14.846945 -1.2114,-0.574847 -1.994889,-0.329567 -2.140678,0.670162 -0.188681,1.293854 3.723058,6.76222 11.075172,15.482397 4.440047,5.26624 10.683975,11.673729 11.375739,11.673729 1.027921,0 4.832054,-3.543146 22.946612,-21.372335 7.950436,-7.825188 10.017684,-9.590587 10.576709,-9.032353 0.472552,0.471883 0.610287,12.696795 0.194662,17.27766 -0.339349,3.740186 -1.597427,9.84914 -2.317315,11.252375 -0.342738,0.668081 -0.428472,0.453825 -0.921936,-2.304026 -1.708388,-9.547783 -4.177631,-14.253524 -7.47925,-14.253524 -2.087527,0 -2.035404,1.448348 0.266474,7.404293 2.026123,5.242456 2.436562,7.126716 2.435613,11.181512 -0.0012,5.337259 -1.094667,9.146627 -3.723698,12.973064 -4.060452,5.909806 -11.838608,10.527995 -17.731712,10.527995 -1.705971,0 -2.245479,-0.135037 -3.24032,-0.811051 z m 5.196013,-10.244754 c 0.107626,-0.174141 -0.0157,-0.22564 -0.289072,-0.120734 -0.532205,0.204226 -0.629579,0.42442 -0.187689,0.42442 0.15899,0 0.373535,-0.136659 0.476761,-0.303686 z m -2.455452,-2.768347 c -0.10651,-0.172339 -1.29453,-0.282078 -2.706161,-0.249972 l -2.516296,0.05723 2.611228,0.192737 c 1.436176,0.106006 2.653949,0.218492 2.706161,0.249971 0.05221,0.03148 0.0095,-0.08101 -0.09493,-0.249971 z m 6.451271,-0.614407 c 0.305818,-0.337924 0.486912,-0.614407 0.402431,-0.614407 -0.08448,0 -0.403816,0.276483 -0.709634,0.614407 -0.305818,0.337923 -0.486911,0.614407 -0.40243,0.614407 0.08448,0 0.403815,-0.276484 0.709633,-0.614407 z M 31.304025,23.040254 c 5.567521,-1.117464 7.17704,-1.136346 12.871678,-0.151004 6.324273,1.094287 9.246966,0.96927 9.246966,-0.395536 0,-1.354679 -3.75718,-3.818333 -7.680084,-5.035976 -2.030768,-0.630336 -2.923406,-0.715153 -7.526483,-0.715153 -3.388491,0 -5.8158,0.147513 -6.912077,0.420064 -2.389106,0.593967 -5.386142,2.065402 -6.128132,3.008689 -0.803959,1.022069 -0.857351,3.013369 -0.09274,3.458716 0.787714,0.458802 1.183307,0.421296 6.220868,-0.5898 z"
       id="path4156"
       inkscape:connector-curvature="0"
       transform="matrix(16,0,0,-16,0,1160)" />
    <path
       style="fill:#59be7b;fill-opacity:1"
       d="M 38.0625,70.092238 C 37.302172,69.6192 35.468579,68.728249 33.987849,68.112349 29.86316,66.396707 26.50503,64.290161 17.230698,57.600636 l -3.407245,-2.457628 -0.01501,-4.462507 c -0.0218,-6.47969 0.360152,-8.900272 2.301255,-14.584103 2.249884,-6.587984 2.23298,-8.885456 -0.06114,-8.309669 -2.836643,0.711952 -5.997758,7.600506 -7.1868281,15.661197 -0.322284,2.18476 -0.7259987,4.112317 -0.8971436,4.28346 C 7.1570863,48.538888 3.6986271,43.031899 2.1606276,38.489599 -2.2589071,25.437026 5.4754737,11.923808 20.912082,5.7277667 26.711523,3.3999513 31.582038,2.4693587 39.187248,2.2359931 c 6.633259,-0.2035415 11.059946,0.2078166 16.073914,1.4936985 4.41161,1.1314019 7.446727,2.5756727 9.656038,4.5948595 2.041026,1.8653809 2.165886,2.6120459 0.770682,4.6086999 -1.011105,1.446978 -27.498479,27.9248 -27.934874,27.9248 -0.143138,0 -3.499001,-3.559719 -7.457472,-7.910487 C 19.479899,21.060065 16.427044,18.315413 15.17557,19.354044 c -0.610943,0.507037 -0.580898,1.017114 0.143554,2.437158 2.180578,4.274285 17.42873,22.353649 20.842967,24.712998 l 1.279966,0.884497 1.743794,-1.345302 C 40.144937,45.303481 46.9905,38.788231 54.398212,31.565065 68.290853,18.018529 70.179303,16.326314 70.757853,16.905408 c 0.500922,0.501391 0.434035,16.989509 -0.08219,20.260439 -0.472481,2.993777 -1.808469,8.332969 -2.178572,8.70654 -0.137686,0.138973 -0.553366,-1.373322 -0.92373,-3.360657 -1.60037,-8.58737 -4.24733,-13.634611 -7.150497,-13.634611 -0.406283,0 -0.993511,0.186326 -1.304954,0.414058 -0.795531,0.581705 -0.514523,1.999445 1.376471,6.944581 0.849307,2.221025 1.746316,4.895409 1.993354,5.943077 0.578292,2.452494 0.577069,8.044413 -0.0025,10.81375 -1.268292,6.061648 -6.253902,12.28569 -12.381916,15.457602 -5.127971,2.65428 -9.463618,3.245542 -12.040953,1.642051 l 9.2e-5,0 z M 31.150424,23.040254 c 5.843742,-1.118477 7.307121,-1.13538 13.193676,-0.152398 2.525589,0.421743 5.249356,0.766805 6.052813,0.766805 1.768103,0 3.025756,-0.521301 3.025756,-1.254186 0,-1.298377 -4.487909,-4.056623 -8.316683,-5.111391 -2.828339,-0.779164 -11.627581,-0.760119 -14.249645,0.03084 -4.068317,1.227231 -6.31079,2.885967 -6.31079,4.668033 0,1.039094 0.652412,1.973906 1.377602,1.973906 0.226658,0 2.57893,-0.414724 5.227271,-0.92161 z"
       id="path4158"
       inkscape:connector-curvature="0"
       transform="matrix(16,0,0,-16,0,1160)" />
    <path
       style="fill:#59be7b;fill-opacity:1"
       d="M 36.978404,69.624413 C 35.621821,68.925 33.409957,67.8486 32.06315,67.232408 29.290106,65.963689 24.935856,63.163026 18.335847,58.402977 l -4.520086,-3.259969 -0.01116,-4.662622 c -0.01495,-6.245193 0.357525,-8.628114 2.200369,-14.076784 2.363506,-6.988089 2.186492,-9.774549 -0.528075,-8.312658 -2.865586,1.54322 -5.6092229,8.119098 -6.7197555,16.105738 C 8.5135546,45.948451 8.1655706,47.530404 7.9838379,47.712136 7.3696582,48.326316 5.83603,46.35979 3.9621302,42.555224 1.5164115,37.589692 1.0636382,35.791189 1.0600362,31.027542 1.057646,27.866513 1.1833441,26.782007 1.770901,24.894301 5.2750754,13.636074 15.905889,5.5918777 30.84322,2.8956608 34.636297,2.211003 43.923292,1.9725528 48.269437,2.4482302 55.670421,3.2582535 61.704212,5.3880587 64.9172,8.3245511 c 2.041677,1.8659759 2.166236,2.6131719 0.768292,4.6086999 -1.054003,1.504559 -27.467231,27.9248 -27.917388,27.9248 -0.156622,0 -3.658685,-3.697961 -7.782362,-8.217691 C 19.262995,20.887758 16.738379,18.599777 15.326675,19.355298 c -0.800816,0.428584 -0.772228,0.833781 0.185968,2.635901 2.941941,5.53303 20.078335,25.318123 21.928701,25.318123 0.505936,0 5.512396,-4.575036 12.587478,-11.50277 19.301598,-18.899624 20.049632,-19.581679 20.729031,-18.900677 0.219764,0.220281 0.324201,3.359111 0.314527,9.452952 -0.01174,7.391708 -0.116639,9.647892 -0.552745,11.887995 -0.687331,3.530572 -1.738384,7.491204 -2.036946,7.675726 -0.127112,0.07856 -0.535628,-1.40898 -0.907814,-3.305641 -1.355489,-6.907576 -2.857016,-10.7497 -4.934583,-12.626657 -1.36449,-1.232734 -2.684331,-1.458468 -3.537739,-0.605061 -0.680517,0.680519 -0.465849,1.708532 1.433515,6.864811 0.84022,2.280985 1.724133,4.976695 1.96425,5.990466 0.656973,2.773736 0.576734,8.451706 -0.160149,11.332893 -1.643648,6.426606 -6.491662,12.080918 -13.064745,15.237614 -3.588732,1.723475 -5.235618,2.165624 -7.892922,2.119055 -1.631538,-0.0286 -2.327182,-0.234817 -4.404098,-1.305615 z M 31.997242,22.864634 c 4.766903,-0.907424 7.07878,-0.933231 11.458862,-0.12791 6.236754,1.146688 9.457047,1.082987 9.878214,-0.195402 0.383749,-1.16481 -4.334953,-4.161944 -8.20614,-5.212218 -2.773905,-0.752576 -11.29158,-0.775912 -14.04984,-0.03849 -5.011749,1.339889 -7.783644,4.165481 -6.009488,6.125902 0.592601,0.654817 0.587003,0.655262 6.928392,-0.551879 z"
       id="path4160"
       inkscape:connector-curvature="0"
       transform="matrix(16,0,0,-16,0,1160)" />
    <path
       style="fill:#59be7b;fill-opacity:1"
       d="M 37.14089,69.729161 C 35.873676,69.070028 33.521631,67.906296 31.914128,67.143089 28.708749,65.621252 25.242156,63.39772 18.303853,58.413232 l -4.552079,-3.270224 0.147462,-6.144067 c 0.161374,-6.723638 0.327919,-7.684847 2.345192,-13.53516 1.514655,-4.392663 1.839048,-6.55358 1.09544,-7.297188 -0.740341,-0.74034 -1.224995,-0.649672 -2.496959,0.467127 C 12.019901,31.112354 9.8985706,36.584127 8.7461779,44.359663 8.4983093,46.032106 8.1510371,47.544938 7.9744615,47.721512 7.3707067,48.325268 5.8217872,46.330873 3.9621302,42.555224 1.5164115,37.589692 1.0636382,35.791189 1.0600362,31.027542 1.057646,27.866513 1.1833441,26.782007 1.770901,24.894301 4.492159,16.151431 11.25083,9.4864775 21.439351,5.4985806 28.004432,2.9289374 34.615592,1.9629389 43.705811,2.2450881 c 10.377687,0.3221104 17.584221,2.4717876 21.700574,6.4731844 1.512442,1.4702045 1.571742,2.3705605 0.277604,4.2149785 -1.065928,1.519171 -27.447827,27.9248 -27.899708,27.9248 -0.159395,0 -2.402856,-2.315546 -4.985471,-5.145657 C 19.886054,21.562176 17.48233,19.253268 15.830953,19.413843 c -0.859244,0.08355 -0.95513,0.191248 -0.895275,1.005562 0.119821,1.630166 5.009054,8.265261 12.231087,16.598603 4.044009,4.666288 8.24077,9.031454 9.425979,9.804215 0.806943,0.526135 0.863785,0.522928 1.735588,-0.09785 1.095033,-0.779731 8.880657,-8.190623 21.250933,-20.228095 9.203457,-8.955855 10.769221,-10.279991 11.259763,-9.522164 0.396827,0.613052 0.486057,13.842686 0.118482,17.566966 -0.338716,3.431898 -1.48864,9.073283 -2.195613,10.77142 l -0.383688,0.92161 -0.435424,-1.996822 c -1.78511,-8.186393 -3.150186,-12.057019 -4.894226,-13.877403 -1.015031,-1.059465 -2.343495,-1.603766 -3.317578,-1.359286 -1.52709,0.383275 -1.346909,1.415936 1.693701,9.707028 1.230411,3.355073 1.303209,3.743694 1.446756,7.723308 0.18266,5.063987 -0.309394,7.723281 -2.083051,11.257831 -2.420078,4.822728 -6.398266,8.665897 -11.512963,11.122207 -3.570174,1.714563 -5.216867,2.159947 -7.892922,2.134811 -1.633526,-0.01533 -2.299153,-0.206262 -4.241612,-1.216623 z M 31.045474,23.040448 c 5.964937,-1.094813 7.743519,-1.132626 12.666161,-0.269283 4.861685,0.852652 8.565021,0.930548 9.300979,0.195636 0.508542,-0.507818 0.505199,-0.574195 -0.0675,-1.341266 -0.801774,-1.07389 -4.022165,-2.994024 -6.378206,-3.80296 -3.748794,-1.28713 -13.068304,-1.378546 -16.645297,-0.163275 -2.069099,0.702969 -3.966118,1.828142 -4.739185,2.810937 -0.846573,1.076244 -0.826378,2.402444 0.04589,3.013403 0.375519,0.263023 0.708455,0.478224 0.739859,0.478224 0.0314,0 2.316189,-0.414637 5.077303,-0.921416 z"
       id="path4162"
       inkscape:connector-curvature="0"
       transform="matrix(16,0,0,-16,0,1160)" />
  </g>
</svg>
